<svg width="45" height="45" viewBox="0 0 45 45" fill="none" xmlns="http://www.w3.org/2000/svg">
<path fill-rule="evenodd" clip-rule="evenodd" d="M22.0705 44.1409C34.2596 44.1409 44.1409 34.2596 44.1409 22.0705C44.1409 9.88128 34.2596 0 22.0705 0C9.88128 0 0 9.88128 0 22.0705C0 34.2596 9.88128 44.1409 22.0705 44.1409ZM10.2941 26.1574C10.0955 24.0692 9.76433 18.4257 15.5335 14.961C23.3548 10.2632 38.2535 13.9149 36.6672 14.7882C32.873 16.8777 31.3503 20.1975 29.9157 23.3249C28.7824 25.7957 27.7041 28.1464 25.6043 29.6759C22.0226 32.2845 16.9692 30.966 14.0479 29.8409C14.0479 29.8409 12.0679 32.1871 10.647 35.3153C10.171 36.3652 8.08499 35.2103 8.45147 34.3224C13.0919 23.0738 28.8915 17.4643 28.8915 17.4643C28.8915 17.4643 17.7456 17.0213 10.2941 26.1574Z" fill="#74D142"/>
</svg>
