<svg width="165" height="45" viewBox="0 0 165 45" fill="none" xmlns="http://www.w3.org/2000/svg">
<path d="M69.9213 17.5428C68.2796 17.5428 67.2161 18.144 66.5687 19.0688C65.9213 18.0977 64.9039 17.5428 63.5398 17.5428C61.9906 17.5428 60.9733 18.144 60.4415 18.9301V17.8665H56.9733V29.4272H60.4415V22.907C60.4415 21.5428 61.0889 20.7336 62.245 20.7336C63.3548 20.7336 63.9097 21.4735 63.9097 22.6295V29.4272H67.3779V22.907C67.3779 21.5428 68.0253 20.7336 69.1814 20.7336C70.2912 20.7336 70.8461 21.4735 70.8461 22.6295V29.4272H74.3143V22.3289C74.3143 19.4388 72.5802 17.5428 69.9213 17.5428Z" fill="#222222"/>
<path d="M79.8991 25.0342H88.1072C88.1997 24.5948 88.2459 24.1324 88.2459 23.6469C88.2459 20.1555 85.7488 17.5428 82.3731 17.5428C78.7199 17.5428 76.2228 20.2018 76.2228 23.6469C76.2228 27.092 78.6736 29.7509 82.6274 29.7509C84.8239 29.7509 86.5349 28.9417 87.6679 27.3694L84.8933 25.774C84.4309 26.2827 83.6216 26.6527 82.6736 26.6527C81.402 26.6527 80.3384 26.2365 79.8991 25.0342ZM79.8297 22.4446C80.1534 21.2654 81.032 20.618 82.3499 20.618C83.3904 20.618 84.4309 21.1035 84.8008 22.4446H79.8297Z" fill="#222222"/>
<path d="M98.6088 17.8665V18.9532C97.8458 18.0746 96.7129 17.5428 95.1637 17.5428C92.1348 17.5428 89.6377 20.2018 89.6377 23.6469C89.6377 27.092 92.1348 29.7509 95.1637 29.7509C96.7129 29.7509 97.8458 29.2191 98.6088 28.3405V29.4272H102.077V17.8665H98.6088ZM95.8574 26.4677C94.262 26.4677 93.1059 25.381 93.1059 23.6469C93.1059 21.9128 94.262 20.8261 95.8574 20.8261C97.4527 20.8261 98.6088 21.9128 98.6088 23.6469C98.6088 25.381 97.4527 26.4677 95.8574 26.4677Z" fill="#222222"/>
<path d="M104.737 29.4272H108.205V12.5486H104.737V29.4272Z" fill="#222222"/>
<path d="M117.772 17.5428C116.223 17.5428 115.09 18.0746 114.327 18.9532V17.8665H110.859V34.0515H114.327V28.3405C115.09 29.2191 116.223 29.7509 117.772 29.7509C120.801 29.7509 123.298 27.092 123.298 23.6469C123.298 20.2018 120.801 17.5428 117.772 17.5428ZM117.079 26.4677C115.483 26.4677 114.327 25.381 114.327 23.6469C114.327 21.9128 115.483 20.8261 117.079 20.8261C118.674 20.8261 119.83 21.9128 119.83 23.6469C119.83 25.381 118.674 26.4677 117.079 26.4677Z" fill="#222222"/>
<path d="M128.848 19.9243V17.8665H125.38V29.4272H128.848V24.2018C128.848 21.9128 130.883 21.3347 132.317 21.5659V17.6353C130.86 17.6353 129.311 18.3752 128.848 19.9243Z" fill="#222222"/>
<path d="M136.813 25.0342H145.021C145.114 24.5948 145.16 24.1324 145.16 23.6469C145.16 20.1555 142.663 17.5428 139.287 17.5428C135.634 17.5428 133.137 20.2018 133.137 23.6469C133.137 27.092 135.588 29.7509 139.541 29.7509C141.738 29.7509 143.449 28.9417 144.582 27.3694L141.807 25.774C141.345 26.2827 140.536 26.6527 139.588 26.6527C138.316 26.6527 137.252 26.2365 136.813 25.0342ZM136.744 22.4446C137.067 21.2654 137.946 20.618 139.264 20.618C140.304 20.618 141.345 21.1035 141.715 22.4446H136.744Z" fill="#222222"/>
<path d="M154.156 17.5428C152.607 17.5428 151.474 18.0746 150.711 18.9532V17.8665H147.243V34.0515H150.711V28.3405C151.474 29.2191 152.607 29.7509 154.156 29.7509C157.185 29.7509 159.682 27.092 159.682 23.6469C159.682 20.2018 157.185 17.5428 154.156 17.5428ZM153.462 26.4677C151.867 26.4677 150.711 25.381 150.711 23.6469C150.711 21.9128 151.867 20.8261 153.462 20.8261C155.058 20.8261 156.214 21.9128 156.214 23.6469C156.214 25.381 155.058 26.4677 153.462 26.4677Z" fill="#222222"/>
<path d="M162.803 29.7509C164.006 29.7509 165 28.7567 165 27.5544C165 26.3521 164.006 25.3579 162.803 25.3579C161.601 25.3579 160.607 26.3521 160.607 27.5544C160.607 28.7567 161.601 29.7509 162.803 29.7509Z" fill="#222222"/>
<path fill-rule="evenodd" clip-rule="evenodd" d="M22.0705 44.1409C34.2596 44.1409 44.1409 34.2596 44.1409 22.0705C44.1409 9.88128 34.2596 0 22.0705 0C9.88128 0 0 9.88128 0 22.0705C0 34.2596 9.88128 44.1409 22.0705 44.1409ZM10.2941 26.1574C10.0955 24.0692 9.76433 18.4257 15.5335 14.961C23.3548 10.2632 38.2535 13.9149 36.6672 14.7882C32.873 16.8777 31.3503 20.1975 29.9157 23.3249C28.7824 25.7957 27.7041 28.1464 25.6043 29.6759C22.0226 32.2845 16.9692 30.966 14.0479 29.8409C14.0479 29.8409 12.0679 32.1871 10.647 35.3153C10.171 36.3652 8.08499 35.2103 8.45147 34.3224C13.0919 23.0738 28.8915 17.4643 28.8915 17.4643C28.8915 17.4643 17.7456 17.0213 10.2941 26.1574Z" fill="#74D142"/>
</svg>
