<svg width="17" height="17" viewBox="0 0 17 17" fill="none" xmlns="http://www.w3.org/2000/svg">
<path d="M13.0821 16.6676C12.9703 16.668 12.8612 16.631 12.7703 16.5617L8.50007 13.2709L4.22981 16.5617C4.13858 16.632 4.02867 16.6697 3.91597 16.6693C3.80327 16.6688 3.69362 16.6303 3.60287 16.5593C3.51212 16.4882 3.44498 16.3883 3.41115 16.2741C3.37732 16.1598 3.37856 16.0371 3.41468 15.9236L5.08015 10.68L0.763741 7.53358C0.670244 7.46551 0.599679 7.36743 0.562354 7.25369C0.52503 7.13995 0.522902 7.0165 0.556282 6.90138C0.589663 6.78626 0.656802 6.6855 0.74789 6.61383C0.838978 6.54216 0.949241 6.50333 1.06257 6.50301H6.38769L7.99472 1.24603C8.02934 1.13254 8.09688 1.03361 8.18767 0.963451C8.27846 0.89329 8.38782 0.855499 8.50007 0.855499C8.61231 0.855499 8.72168 0.89329 8.81246 0.963451C8.90325 1.03361 8.9708 1.13254 9.00542 1.24603L10.6124 6.50478H15.9376C16.051 6.50472 16.1615 6.54328 16.2529 6.61481C16.3443 6.68634 16.4117 6.78709 16.4453 6.9023C16.4789 7.01751 16.4769 7.14112 16.4396 7.25504C16.4023 7.36895 16.3317 7.46719 16.2381 7.53535L11.92 10.68L13.5845 15.9222C13.6114 16.007 13.619 16.0975 13.6066 16.1861C13.5942 16.2747 13.5621 16.3589 13.513 16.4317C13.4639 16.5045 13.3993 16.5639 13.3243 16.6049C13.2494 16.6459 13.1664 16.6674 13.0821 16.6676Z" fill="#EFB110"/>
</svg>
