<svg width="50" height="36" viewBox="0 0 50 36" fill="none" xmlns="http://www.w3.org/2000/svg">
<path d="M17.1122 29.8H27.9325C29.626 29.8 31 29.8 31 29.8V5.0817C31 2.82782 29.6268 1 27.9325 1H4.06745C2.37246 1 1 2.82782 1 5.0817V29.8C1 29.8 2.95332 29.8 4.64831 29.8" stroke="#131A2C" stroke-width="2" stroke-miterlimit="10" stroke-linecap="round" stroke-linejoin="round"/>
<path d="M47.5251 17.7883H38.2" stroke="#74D142" stroke-width="2" stroke-miterlimit="10" stroke-linecap="round"/>
<path d="M45.3328 29.8H46.9228C48.6447 29.8 49 29.8 49 29.8C49 29.8 49 22.3707 49 21.5694C49 20.7681 46.7608 12.8535 45.8799 9.99532C45.0013 7.13716 44.4864 5.79999 42.7621 5.79999H31C31 5.79999 31 7.67926 31 9.99532V29.8C31 29.8 33.2341 29.8 34.6 29.8" stroke="#131A2C" stroke-width="2" stroke-miterlimit="10" stroke-linecap="round" stroke-linejoin="round"/>
<path d="M10.802 34.2394C13.5645 34.2394 15.8039 31.9999 15.8039 29.2374C15.8039 26.4749 13.5645 24.2355 10.802 24.2355C8.03946 24.2355 5.8 26.4749 5.8 29.2374C5.8 31.9999 8.03946 34.2394 10.802 34.2394Z" stroke="#131A2C" stroke-width="2" stroke-miterlimit="10" stroke-linecap="round"/>
<path d="M39.602 34.2394C42.3645 34.2394 44.604 31.9999 44.604 29.2374C44.604 26.4749 42.3645 24.2355 39.602 24.2355C36.8395 24.2355 34.6 26.4749 34.6 29.2374C34.6 31.9999 36.8395 34.2394 39.602 34.2394Z" stroke="#131A2C" stroke-width="2" stroke-miterlimit="10" stroke-linecap="round"/>
</svg>
