<svg width="32" height="32" viewBox="0 0 32 32" fill="none" xmlns="http://www.w3.org/2000/svg">
<path d="M10 24C9.40666 24 8.82664 24.1759 8.33329 24.5056C7.83994 24.8352 7.45543 25.3038 7.22836 25.8519C7.0013 26.4001 6.94189 27.0033 7.05765 27.5853C7.1734 28.1672 7.45912 28.7018 7.87868 29.1213C8.29824 29.5409 8.83279 29.8266 9.41473 29.9424C9.99667 30.0581 10.5999 29.9987 11.1481 29.7716C11.6962 29.5446 12.1648 29.1601 12.4944 28.6667C12.8241 28.1734 13 27.5933 13 27C13 26.2044 12.6839 25.4413 12.1213 24.8787C11.5587 24.3161 10.7957 24 10 24ZM10 28C9.80222 28 9.60888 27.9414 9.44443 27.8315C9.27998 27.7216 9.15181 27.5654 9.07612 27.3827C9.00043 27.2 8.98063 26.9989 9.01922 26.8049C9.0578 26.6109 9.15304 26.4327 9.29289 26.2929C9.43275 26.153 9.61093 26.0578 9.80491 26.0192C9.99889 25.9806 10.2 26.0004 10.3827 26.0761C10.5654 26.1518 10.7216 26.28 10.8315 26.4444C10.9414 26.6089 11 26.8022 11 27C11 27.2652 10.8946 27.5196 10.7071 27.7071C10.5196 27.8946 10.2652 28 10 28Z" fill="#131A2C"/>
<path d="M22 24C21.4067 24 20.8266 24.1759 20.3333 24.5056C19.8399 24.8352 19.4554 25.3038 19.2284 25.8519C19.0013 26.4001 18.9419 27.0033 19.0576 27.5853C19.1734 28.1672 19.4591 28.7018 19.8787 29.1213C20.2982 29.5409 20.8328 29.8266 21.4147 29.9424C21.9967 30.0581 22.5999 29.9987 23.1481 29.7716C23.6962 29.5446 24.1648 29.1601 24.4944 28.6667C24.8241 28.1734 25 27.5933 25 27C25 26.2044 24.6839 25.4413 24.1213 24.8787C23.5587 24.3161 22.7957 24 22 24ZM22 28C21.8022 28 21.6089 27.9414 21.4444 27.8315C21.28 27.7216 21.1518 27.5654 21.0761 27.3827C21.0004 27.2 20.9806 26.9989 21.0192 26.8049C21.0578 26.6109 21.153 26.4327 21.2929 26.2929C21.4327 26.153 21.6109 26.0578 21.8049 26.0192C21.9989 25.9806 22.2 26.0004 22.3827 26.0761C22.5654 26.1518 22.7216 26.28 22.8315 26.4444C22.9414 26.6089 23 26.8022 23 27C23 27.2652 22.8946 27.5196 22.7071 27.7071C22.5196 27.8946 22.2652 28 22 28Z" fill="#131A2C"/>
<path d="M6.78 6L6.35 4.27C6.18729 3.62145 5.81258 3.04584 5.28537 2.63457C4.75815 2.22331 4.10865 1.99996 3.44 2H2V4H3.44C3.66843 3.99334 3.89226 4.06513 4.07421 4.20341C4.25615 4.34169 4.38525 4.53812 4.44 4.76L8 19.24L8.37 20.73C8.53393 21.3836 8.91311 21.9629 9.44644 22.3747C9.97978 22.7865 10.6362 23.0068 11.31 23H25V21H11.31C11.0816 21.0067 10.8577 20.9349 10.6758 20.7966C10.4938 20.6583 10.3648 20.4619 10.31 20.24L10.19 19.74L25 16.25C25.5371 16.1251 26.0293 15.8547 26.4227 15.4684C26.8161 15.082 27.0954 14.5947 27.23 14.06L29.23 6H6.78ZM25.33 13.58C25.2846 13.7591 25.1905 13.9221 25.0581 14.051C24.9257 14.1798 24.7602 14.2695 24.58 14.31L9.73 17.8L7.28 8H26.72L25.33 13.58Z" fill="#131A2C"/>
</svg>
