<svg width="48" height="48" viewBox="0 0 48 48" fill="none" xmlns="http://www.w3.org/2000/svg">
<path d="M18.24 36.48C14.6325 36.48 11.1059 35.4102 8.1064 33.406C5.10685 31.4017 2.76898 28.553 1.38844 25.2201C0.00790305 21.8872 -0.353309 18.2197 0.350484 14.6815C1.05428 11.1433 2.79147 7.89328 5.34237 5.34237C7.89328 2.79147 11.1433 1.05428 14.6815 0.350484C18.2198 -0.353309 21.8872 0.00790305 25.2201 1.38844C28.553 2.76898 31.4017 5.10685 33.406 8.1064C35.4102 11.1059 36.48 14.6325 36.48 18.24C36.48 23.0775 34.5583 27.7169 31.1376 31.1376C27.7169 34.5583 23.0775 36.48 18.24 36.48ZM18.24 1.92001C15.0122 1.92001 11.8569 2.87716 9.17309 4.67042C6.48928 6.46368 4.39751 9.01251 3.16229 11.9946C1.92707 14.9767 1.60388 18.2581 2.23359 21.4239C2.8633 24.5896 4.41763 27.4976 6.70002 29.7799C8.98241 32.0623 11.8903 33.6167 15.0561 34.2464C18.2219 34.8761 21.5033 34.5529 24.4854 33.3177C27.4675 32.0825 30.0163 29.9907 31.8096 27.3069C33.6028 24.6231 34.56 21.4678 34.56 18.24C34.56 13.9117 32.8405 9.76061 29.78 6.70002C26.7194 3.63943 22.5683 1.92001 18.24 1.92001Z" fill="#131A2C"/>
<path d="M34.56 35.5199C34.4336 35.5206 34.3084 35.4964 34.1914 35.4486C34.0745 35.4009 33.9681 35.3305 33.8784 35.2415L30.0384 31.4015C29.9489 31.312 29.8779 31.2057 29.8294 31.0888C29.781 30.9718 29.756 30.8465 29.756 30.7199C29.756 30.5933 29.781 30.468 29.8294 30.351C29.8779 30.2341 29.9489 30.1278 30.0384 30.0383C30.1279 29.9488 30.2341 29.8778 30.3511 29.8294C30.468 29.7809 30.5934 29.756 30.72 29.756C30.8466 29.756 30.9719 29.7809 31.0889 29.8294C31.2058 29.8778 31.3121 29.9488 31.4016 30.0383L35.2416 33.8783C35.3315 33.9675 35.403 34.0737 35.4517 34.1907C35.5004 34.3077 35.5255 34.4332 35.5255 34.5599C35.5255 34.6866 35.5004 34.8121 35.4517 34.9291C35.403 35.0461 35.3315 35.1523 35.2416 35.2415C35.1519 35.3305 35.0455 35.4009 34.9285 35.4486C34.8116 35.4964 34.6863 35.5206 34.56 35.5199Z" fill="#131A2C"/>
<path d="M44.2943 48C43.8076 48.0007 43.3255 47.9052 42.8757 47.719C42.426 47.5329 42.0174 47.2597 41.6735 46.9152L31.9583 37.2C31.781 37.0212 31.681 36.7799 31.6799 36.528C31.6792 36.4017 31.7034 36.2764 31.7512 36.1595C31.799 36.0425 31.8694 35.9361 31.9583 35.8464L35.8463 31.9584C36.0262 31.7796 36.2695 31.6793 36.5231 31.6793C36.7768 31.6793 37.0201 31.7796 37.1999 31.9584L46.9151 41.6736C47.4336 42.1919 47.7867 42.8522 47.9298 43.5712C48.0728 44.2901 47.9994 45.0354 47.7189 45.7126C47.4383 46.3899 46.9632 46.9687 46.3536 47.3758C45.744 47.783 45.0274 48.0002 44.2943 48ZM33.9935 36.48L43.0271 45.5136C43.3694 45.8177 43.8148 45.9796 44.2725 45.9662C44.7301 45.9527 45.1653 45.7649 45.4891 45.4411C45.8128 45.1174 46.0006 44.6822 46.0141 44.2246C46.0276 43.7669 45.8657 43.3214 45.5615 42.9792L36.5279 33.9456L33.9935 36.48Z" fill="#131A2C"/>
<path d="M30.72 19.2C30.4653 19.2 30.2212 19.0988 30.0411 18.9188C29.8611 18.7388 29.76 18.4946 29.76 18.24C29.76 15.1847 28.5462 12.2545 26.3858 10.0941C24.2254 7.93369 21.2953 6.71999 18.24 6.71999C17.9854 6.71999 17.7412 6.61884 17.5611 6.43881C17.3811 6.25877 17.28 6.01459 17.28 5.75999C17.28 5.50538 17.3811 5.2612 17.5611 5.08117C17.7412 4.90113 17.9854 4.79999 18.24 4.79999C21.8045 4.79999 25.223 6.21598 27.7435 8.73647C30.264 11.257 31.68 14.6755 31.68 18.24C31.68 18.4946 31.5788 18.7388 31.3988 18.9188C31.2187 19.0988 30.9746 19.2 30.72 19.2Z" fill="#74D142"/>
</svg>
