<svg width="48" height="41" viewBox="0 0 48 41" fill="none" xmlns="http://www.w3.org/2000/svg">
<path d="M41.6473 15.9506C41.4223 15.7257 41.1171 15.5993 40.799 15.5993C40.4808 15.5993 40.1756 15.7257 39.9506 15.9506L36.3508 19.5504C36.2391 19.6618 36.1504 19.7943 36.09 19.94C36.0295 20.0858 35.9983 20.2421 35.9983 20.3999C35.9983 20.5578 36.0295 20.714 36.09 20.8598C36.1504 21.0056 36.2391 21.138 36.3508 21.2495L39.9506 24.8492C40.1769 25.0678 40.48 25.1888 40.7946 25.186C41.1093 25.1833 41.4102 25.0571 41.6327 24.8346C41.8552 24.6122 41.9814 24.3112 41.9841 23.9966C41.9868 23.682 41.8659 23.3789 41.6473 23.1526L40.0958 21.5987H44.3987C44.8752 21.6126 45.3496 21.529 45.7926 21.353C46.2357 21.1771 46.6381 20.9124 46.9752 20.5753C47.3123 20.2382 47.5769 19.8358 47.7529 19.3928C47.9289 18.9497 48.0124 18.4754 47.9985 17.9989V8.39949C48.0124 7.92298 47.9289 7.44864 47.7529 7.0056C47.5769 6.56255 47.3123 6.16013 46.9752 5.82305C46.6381 5.48596 46.2357 5.22131 45.7926 5.04533C45.3496 4.86936 44.8752 4.78578 44.3987 4.79971H37.1992C36.8809 4.79971 36.5757 4.92613 36.3507 5.15116C36.1257 5.37619 35.9993 5.6814 35.9993 5.99964C35.9993 6.31788 36.1257 6.62308 36.3507 6.84811C36.5757 7.07314 36.8809 7.19956 37.1992 7.19956H44.3843C44.5468 7.18231 44.711 7.20137 44.8652 7.25536C45.0194 7.30935 45.1597 7.39692 45.2759 7.51174C45.3921 7.62657 45.4813 7.76577 45.5371 7.9193C45.593 8.07283 45.614 8.23684 45.5987 8.39949V17.9845C45.6161 18.147 45.5972 18.3113 45.5433 18.4656C45.4894 18.6199 45.4018 18.7603 45.287 18.8765C45.1721 18.9928 45.0328 19.082 44.8792 19.1377C44.7255 19.1935 44.5614 19.2143 44.3987 19.1988H40.0958L41.6473 17.6473C41.8723 17.4223 41.9986 17.1171 41.9986 16.799C41.9986 16.4808 41.8723 16.1756 41.6473 15.9506Z" fill="#74D142"/>
<path d="M3.60127 21.5987H10.8008C11.1191 21.5987 11.4243 21.4723 11.6493 21.2472C11.8743 21.0222 12.0007 20.717 12.0007 20.3987C12.0007 20.0805 11.8743 19.7753 11.6493 19.5503C11.4243 19.3252 11.1191 19.1988 10.8008 19.1988H3.60127C3.12476 19.1849 2.65042 19.2685 2.20738 19.4444C1.76433 19.6204 1.36192 19.8851 1.02483 20.2222C0.687739 20.5592 0.423088 20.9617 0.247115 21.4047C0.071142 21.8478 -0.0124407 22.3221 0.00149558 22.7986V32.398C-0.0124407 32.8745 0.071142 33.3488 0.247115 33.7919C0.423088 34.2349 0.687739 34.6373 1.02483 34.9744C1.36192 35.3115 1.76433 35.5762 2.20738 35.7521C2.65042 35.9281 3.12476 36.0117 3.60127 35.9978H7.9042L6.3527 37.5493C6.23809 37.66 6.14668 37.7924 6.08379 37.9388C6.0209 38.0851 5.9878 38.2426 5.98642 38.4019C5.98503 38.5613 6.01539 38.7193 6.07573 38.8667C6.13606 39.0142 6.22516 39.1482 6.33782 39.2608C6.45049 39.3735 6.58446 39.4626 6.73193 39.5229C6.87939 39.5833 7.0374 39.6136 7.19672 39.6122C7.35605 39.6108 7.5135 39.5777 7.6599 39.5149C7.80629 39.452 7.9387 39.3606 8.04939 39.246L11.6492 35.6462C11.7609 35.5347 11.8496 35.4023 11.9101 35.2565C11.9705 35.1107 12.0017 34.9545 12.0017 34.7966C12.0017 34.6388 11.9705 34.4825 11.9101 34.3367C11.8496 34.191 11.7609 34.0586 11.6492 33.9471L8.04939 30.3473C7.82308 30.1287 7.51998 30.0078 7.20536 30.0105C6.89074 30.0133 6.58979 30.1395 6.36731 30.3619C6.14484 30.5844 6.01864 30.8854 6.01591 31.2C6.01317 31.5146 6.13412 31.8177 6.3527 32.044L7.9042 33.5979H3.60127C3.43976 33.6138 3.27675 33.5936 3.12397 33.5389C2.97118 33.4842 2.83242 33.3963 2.71767 33.2816C2.60292 33.1668 2.51503 33.0281 2.46034 32.8753C2.40564 32.7225 2.38549 32.5595 2.40134 32.398V22.7986C2.38549 22.6371 2.40564 22.4741 2.46034 22.3213C2.51503 22.1685 2.60292 22.0297 2.71767 21.915C2.83242 21.8002 2.97118 21.7124 3.12397 21.6577C3.27675 21.603 3.43976 21.5828 3.60127 21.5987Z" fill="#74D142"/>
<path d="M16.8004 11.9992H31.1995C31.836 11.9992 32.4464 11.7464 32.8964 11.2963C33.3465 10.8463 33.5993 10.2359 33.5993 9.59939V2.39985C33.5993 1.76337 33.3465 1.15296 32.8964 0.702899C32.4464 0.252841 31.836 0 31.1995 0L16.8004 0C16.1639 0 15.5535 0.252841 15.1035 0.702899C14.6534 1.15296 14.4006 1.76337 14.4006 2.39985V9.59939C14.4006 10.2359 14.6534 10.8463 15.1035 11.2963C15.5535 11.7464 16.1639 11.9992 16.8004 11.9992ZM16.8004 2.39985H31.1995V9.59939H16.8004V2.39985Z" fill="#131A2C"/>
<path d="M16.8004 26.3984H31.1995C31.836 26.3984 32.4464 26.1455 32.8964 25.6955C33.3465 25.2454 33.5993 24.635 33.5993 23.9985V16.799C33.5993 16.1625 33.3465 15.5521 32.8964 15.102C32.4464 14.6519 31.836 14.3991 31.1995 14.3991H16.8004C16.1639 14.3991 15.5535 14.6519 15.1035 15.102C14.6534 15.5521 14.4006 16.1625 14.4006 16.799V23.9985C14.4006 24.635 14.6534 25.2454 15.1035 25.6955C15.5535 26.1455 16.1639 26.3984 16.8004 26.3984ZM16.8004 16.799H31.1995V23.9985H16.8004V16.799Z" fill="#131A2C"/>
<path d="M16.8004 40.7974H31.1995C31.836 40.7974 32.4464 40.5446 32.8964 40.0945C33.3465 39.6444 33.5993 39.034 33.5993 38.3976V31.198C33.5993 30.5615 33.3465 29.9511 32.8964 29.5011C32.4464 29.051 31.836 28.7982 31.1995 28.7982H16.8004C16.1639 28.7982 15.5535 29.051 15.1035 29.5011C14.6534 29.9511 14.4006 30.5615 14.4006 31.198V38.3976C14.4006 39.034 14.6534 39.6444 15.1035 40.0945C15.5535 40.5446 16.1639 40.7974 16.8004 40.7974ZM16.8004 31.198H31.1995V38.3976H16.8004V31.198Z" fill="#131A2C"/>
</svg>
